<svg xmlns="http://www.w3.org/2000/svg" xmlns:xlink="http://www.w3.org/1999/xlink" width="100" zoomAndPan="magnify" viewBox="0 0 75 30.000001" height="40" preserveAspectRatio="xMidYMid meet" version="1.0"><defs><g/><clipPath id="abfa2feb0d"><path d="M 6.539062 4.292969 L 67.953125 4.292969 L 67.953125 14.855469 L 6.539062 14.855469 Z M 6.539062 4.292969 " clip-rule="nonzero"/></clipPath></defs><g clip-path="url(#abfa2feb0d)"><path fill="#5271ff" d="M 9.5 10.023438 C 9.9375 9.71875 10.167969 9.433594 10.167969 9.125 C 10.167969 8.761719 9.9375 8.457031 9.652344 8.230469 C 9.5 8.078125 8.90625 7.867188 9.289062 7.273438 C 12.535156 8.09375 22.84375 4.316406 31.816406 4.316406 C 37.449219 4.316406 42.851562 5.269531 48.273438 7.503906 C 51.691406 7.503906 64.882812 8.917969 67.917969 14.03125 C 67.765625 14.183594 67.554688 14.546875 67.480469 14.777344 L 66.734375 14.777344 C 66.8125 14.546875 66.964844 14.261719 67.097656 14.03125 C 65.167969 11.074219 51.386719 8.6875 47.605469 8.6875 C 42.183594 6.242188 36.703125 5.5 31.816406 5.5 C 22.328125 5.5 15.667969 8.609375 10.472656 8.246094 C 10.472656 8.609375 11.066406 8.992188 11.066406 9.585938 C 11.066406 10.101562 10.835938 10.617188 10.472656 11.074219 C 9.289062 11.054688 7.496094 12.179688 7.496094 14.757812 L 6.539062 14.757812 C 6.539062 13.5 6.539062 11.4375 9.5 10.023438 Z M 9.5 10.023438 " fill-opacity="1" fill-rule="nonzero"/></g><g fill="#ffffff" fill-opacity="1"><g transform="translate(1.926109, 21.695952)"><g><path d="M 2.78125 0.203125 C 2.25 0.203125 1.78125 0.113281 1.375 -0.0625 C 0.976562 -0.25 0.664062 -0.503906 0.4375 -0.828125 C 0.21875 -1.160156 0.109375 -1.546875 0.109375 -1.984375 L 1.5625 -2.234375 C 1.550781 -1.847656 1.664062 -1.539062 1.90625 -1.3125 C 2.15625 -1.082031 2.492188 -0.96875 2.921875 -0.96875 C 3.285156 -0.96875 3.578125 -1.039062 3.796875 -1.1875 C 4.023438 -1.332031 4.140625 -1.53125 4.140625 -1.78125 C 4.140625 -1.976562 4.054688 -2.140625 3.890625 -2.265625 C 3.722656 -2.390625 3.472656 -2.5 3.140625 -2.59375 L 2.453125 -2.796875 C 1.867188 -2.941406 1.4375 -3.148438 1.15625 -3.421875 C 0.882812 -3.703125 0.75 -4.066406 0.75 -4.515625 C 0.75 -4.960938 0.859375 -5.347656 1.078125 -5.671875 C 1.304688 -5.992188 1.613281 -6.238281 2 -6.40625 C 2.394531 -6.582031 2.835938 -6.671875 3.328125 -6.671875 C 3.804688 -6.671875 4.222656 -6.59375 4.578125 -6.4375 C 4.941406 -6.289062 5.222656 -6.078125 5.421875 -5.796875 C 5.628906 -5.523438 5.734375 -5.195312 5.734375 -4.8125 L 4.3125 -4.515625 C 4.3125 -4.804688 4.21875 -5.046875 4.03125 -5.234375 C 3.84375 -5.429688 3.582031 -5.53125 3.25 -5.53125 C 2.945312 -5.53125 2.707031 -5.453125 2.53125 -5.296875 C 2.363281 -5.148438 2.28125 -4.96875 2.28125 -4.75 C 2.28125 -4.570312 2.347656 -4.421875 2.484375 -4.296875 C 2.628906 -4.179688 2.859375 -4.082031 3.171875 -4 L 3.828125 -3.8125 C 4.460938 -3.644531 4.925781 -3.414062 5.21875 -3.125 C 5.519531 -2.832031 5.671875 -2.460938 5.671875 -2.015625 C 5.671875 -1.546875 5.539062 -1.144531 5.28125 -0.8125 C 5.03125 -0.488281 4.6875 -0.238281 4.25 -0.0625 C 3.8125 0.113281 3.320312 0.203125 2.78125 0.203125 Z M 2.78125 0.203125 "/></g></g></g><g fill="#ffffff" fill-opacity="1"><g transform="translate(7.786834, 21.695952)"><g><path d="M 1.453125 0 L 0.6875 -6.46875 L 2.28125 -6.46875 L 2.6875 -1.546875 L 2.703125 -1.546875 L 4.71875 -6.46875 L 6.625 -6.46875 L 7.078125 -1.546875 L 7.109375 -1.546875 L 9.078125 -6.46875 L 10.671875 -6.46875 L 7.84375 0 L 5.890625 0 L 5.4375 -4.875 L 5.421875 -4.875 L 3.421875 0 Z M 1.453125 0 "/></g></g></g><g fill="#ffffff" fill-opacity="1"><g transform="translate(17.809126, 21.695952)"><g><path d="M 0.078125 0 L 1.09375 -6.46875 L 2.65625 -6.46875 L 1.625 0 Z M 0.078125 0 "/></g></g></g><g fill="#ffffff" fill-opacity="1"><g transform="translate(20.244279, 21.695952)"><g><path d="M 0.078125 0 L 1.09375 -6.46875 L 5.359375 -6.46875 L 5.15625 -5.140625 L 2.453125 -5.140625 L 2.203125 -3.625 L 4.390625 -3.625 L 4.1875 -2.453125 L 2.015625 -2.453125 L 1.625 0 Z M 0.078125 0 "/></g></g></g><g fill="#ffffff" fill-opacity="1"><g transform="translate(25.1055, 21.695952)"><g><path d="M 1.59375 0 L 2.421875 -5.140625 L 0.578125 -5.140625 L 0.796875 -6.46875 L 6.03125 -6.46875 L 5.8125 -5.140625 L 3.96875 -5.140625 L 3.171875 0 Z M 1.59375 0 "/></g></g></g><g fill="#ffffff" fill-opacity="1"><g transform="translate(30.602769, 21.695952)"><g/></g></g><g fill="#5271ff" fill-opacity="1"><g transform="translate(32.340901, 21.695952)"><g><path d="M 4.78125 0.15625 C 4.457031 0.15625 4.203125 0.0625 4.015625 -0.125 C 3.835938 -0.3125 3.734375 -0.550781 3.703125 -0.84375 L 3.578125 -1.859375 C 3.554688 -2.035156 3.5 -2.175781 3.40625 -2.28125 C 3.3125 -2.394531 3.179688 -2.453125 3.015625 -2.453125 L 2.015625 -2.453125 L 1.625 0 L 0.078125 0 L 1.09375 -6.46875 L 4.125 -6.46875 C 4.820312 -6.46875 5.359375 -6.316406 5.734375 -6.015625 C 6.117188 -5.722656 6.3125 -5.300781 6.3125 -4.75 C 6.3125 -4.257812 6.160156 -3.832031 5.859375 -3.46875 C 5.566406 -3.101562 5.171875 -2.859375 4.671875 -2.734375 L 4.671875 -2.71875 C 4.804688 -2.65625 4.90625 -2.554688 4.96875 -2.421875 C 5.039062 -2.296875 5.082031 -2.144531 5.09375 -1.96875 L 5.203125 -1.171875 C 5.222656 -0.960938 5.300781 -0.859375 5.4375 -0.859375 C 5.507812 -0.859375 5.582031 -0.878906 5.65625 -0.921875 C 5.738281 -0.960938 5.816406 -1.015625 5.890625 -1.078125 L 6.109375 -0.34375 C 5.921875 -0.1875 5.707031 -0.0664062 5.46875 0.015625 C 5.238281 0.109375 5.007812 0.15625 4.78125 0.15625 Z M 2.1875 -3.515625 L 3.546875 -3.515625 C 3.898438 -3.515625 4.1875 -3.609375 4.40625 -3.796875 C 4.632812 -3.992188 4.75 -4.257812 4.75 -4.59375 C 4.75 -4.832031 4.671875 -5.015625 4.515625 -5.140625 C 4.367188 -5.265625 4.144531 -5.328125 3.84375 -5.328125 L 2.46875 -5.328125 Z M 2.1875 -3.515625 "/></g></g></g><g fill="#5271ff" fill-opacity="1"><g transform="translate(38.764983, 21.695952)"><g><path d="M 0.078125 0 L 1.09375 -6.46875 L 5.46875 -6.46875 L 5.265625 -5.234375 L 2.40625 -5.234375 L 2.1875 -3.859375 L 4.6875 -3.859375 L 4.515625 -2.78125 L 2.015625 -2.78125 L 1.765625 -1.25 L 4.71875 -1.25 L 4.53125 0 Z M 0.078125 0 "/></g></g></g><g fill="#5271ff" fill-opacity="1"><g transform="translate(43.844278, 21.695952)"><g><path d="M 0.078125 0 L 1.09375 -6.46875 L 2.96875 -6.46875 L 4.78125 -1.8125 L 4.796875 -1.8125 L 5.546875 -6.46875 L 7 -6.46875 L 5.96875 0 L 4.09375 0 L 2.28125 -4.671875 L 2.25 -4.671875 L 1.515625 0 Z M 0.078125 0 "/></g></g></g><g fill="#5271ff" fill-opacity="1"><g transform="translate(50.613641, 21.695952)"><g><path d="M 1.59375 0 L 2.421875 -5.140625 L 0.578125 -5.140625 L 0.796875 -6.46875 L 6.03125 -6.46875 L 5.8125 -5.140625 L 3.96875 -5.140625 L 3.171875 0 Z M 1.59375 0 "/></g></g></g><g fill="#5271ff" fill-opacity="1"><g transform="translate(56.110911, 21.695952)"><g><path d="M -0.34375 0 L 2.90625 -6.46875 L 4.828125 -6.46875 L 6.015625 0 L 4.421875 0 L 4.21875 -1.296875 L 1.84375 -1.296875 L 1.203125 0 Z M 2.28125 -2.375 L 4.140625 -2.375 L 3.6875 -5.234375 L 3.671875 -5.234375 Z M 2.28125 -2.375 "/></g></g></g><g fill="#5271ff" fill-opacity="1"><g transform="translate(62.525906, 21.695952)"><g><path d="M 0.078125 0 L 1.09375 -6.46875 L 2.65625 -6.46875 L 1.84375 -1.328125 L 4.296875 -1.328125 L 4.078125 0 Z M 0.078125 0 "/></g></g></g><g fill="#5271ff" fill-opacity="1"><g transform="translate(67.105447, 21.695952)"><g><path d="M -0.1875 0 L 0.03125 -1.421875 L 3.953125 -5.25 L 0.734375 -5.25 L 0.9375 -6.46875 L 5.8125 -6.46875 L 5.578125 -5.03125 L 1.671875 -1.234375 L 5.0625 -1.234375 L 4.875 0 Z M -0.1875 0 "/></g></g></g></svg>